<svg width="1600" height="900" viewBox="0 0 1600 900" fill="none" xmlns="http://www.w3.org/2000/svg">
  <defs>
    <linearGradient id="bg1" x1="0%" y1="0%" x2="100%" y2="100%">
      <stop offset="0%" stop-color="#0F172A"/>
      <stop offset="50%" stop-color="#1E293B"/>
      <stop offset="100%" stop-color="#0F172A"/>
    </linearGradient>
    <linearGradient id="glow1" x1="0%" y1="0%" x2="100%" y2="100%">
      <stop offset="0%" stop-color="#3B82F6" stop-opacity="0.4"/>
      <stop offset="100%" stop-color="#8B5CF6" stop-opacity="0.1"/>
    </linearGradient>
  </defs>
  <rect width="1600" height="900" fill="url(#bg1)"/>
  <circle cx="200" cy="200" r="350" fill="url(#glow1)"/>
  <circle cx="1400" cy="700" r="300" fill="url(#glow1)"/>
  <g opacity="0.15">
    <line x1="0" y1="300" x2="1600" y2="300" stroke="#3B82F6" stroke-width="0.5"/>
    <line x1="0" y1="600" x2="1600" y2="600" stroke="#3B82F6" stroke-width="0.5"/>
    <line x1="400" y1="0" x2="400" y2="900" stroke="#3B82F6" stroke-width="0.5"/>
    <line x1="800" y1="0" x2="800" y2="900" stroke="#3B82F6" stroke-width="0.5"/>
    <line x1="1200" y1="0" x2="1200" y2="900" stroke="#3B82F6" stroke-width="0.5"/>
  </g>
  <rect x="100" y="280" width="600" height="120" rx="24" fill="white" fill-opacity="0.08"/>
  <rect x="100" y="430" width="900" height="56" rx="18" fill="white" fill-opacity="0.85"/>
  <rect x="100" y="510" width="750" height="36" rx="17" fill="white" fill-opacity="0.5"/>
  <rect x="100" y="560" width="810" height="36" rx="17" fill="white" fill-opacity="0.35"/>
  <rect x="100" y="650" width="260" height="60" rx="30" fill="#3B82F6"/>
  <rect x="390" y="650" width="200" height="60" rx="30" fill="white" fill-opacity="0.1"/>
  <text x="1220" y="450" font-family="system-ui, sans-serif" font-size="120" font-weight="700" fill="#3B82F6" fill-opacity="0.12">#</text>
</svg>
