
<svg width="1600" height="900" viewBox="0 0 1600 900" fill="none" xmlns="http://www.w3.org/2000/svg">
  <defs>
    <linearGradient id="bg4" x1="0%" y1="0%" x2="100%" y2="100%">
      <stop offset="0%" stop-color="#1C1917"/>
      <stop offset="50%" stop-color="#292524"/>
      <stop offset="100%" stop-color="#1C1917"/>
    </linearGradient>
    <radialGradient id="glow4" cx="50%" cy="50%" r="50%">
      <stop offset="0%" stop-color="#F59E0B" stop-opacity="0.2"/>
      <stop offset="100%" stop-color="#F59E0B" stop-opacity="0"/>
    </radialGradient>
  </defs>
  <rect width="1600" height="900" fill="url(#bg4)"/>
  <circle cx="800" cy="450" r="350" fill="url(#glow4)"/>
  <g opacity="0.06">
    <rect x="100" y="100" width="100" height="100" fill="none" stroke="#F59E0B" stroke-width="1"/>
    <rect x="1400" y="700" width="100" height="100" fill="none" stroke="#F59E0B" stroke-width="1"/>
    <rect x="200" y="750" width="60" height="60" fill="none" stroke="#F59E0B" stroke-width="1"/>
    <rect x="1300" y="150" width="80" height="80" fill="none" stroke="#F59E0B" stroke-width="1"/>
  </g>
  <rect x="100" y="320" width="480" height="110" rx="24" fill="white" fill-opacity="0.08"/>
  <rect x="100" y="460" width="820" height="56" rx="18" fill="white" fill-opacity="0.9"/>
  <rect x="100" y="540" width="680" height="36" rx="17" fill="white" fill-opacity="0.55"/>
  <rect x="100" y="590" width="740" height="36" rx="17" fill="white" fill-opacity="0.35"/>
  <rect x="100" y="680" width="300" height="60" rx="30" fill="#F59E0B"/>
  <rect x="430" y="680" width="260" height="60" rx="30" fill="white" fill-opacity="0.1"/>
  <line x1="1250" y1="450" x2="1500" y2="450" stroke="#F59E0B" stroke-width="3" stroke-opacity="0.15"/>
  <line x1="1250" y1="480" x2="1450" y2="480" stroke="#F59E0B" stroke-width="2" stroke-opacity="0.1"/>
  <line x1="1250" y1="510" x2="1400" y2="510" stroke="#F59E0B" stroke-width="1" stroke-opacity="0.08"/>
</svg>
