<svg width="1600" height="900" viewBox="0 0 1600 900" fill="none" xmlns="http://www.w3.org/2000/svg">
  <defs>
    <linearGradient id="bg2" x1="0%" y1="0%" x2="100%" y2="100%">
      <stop offset="0%" stop-color="#064E3B"/>
      <stop offset="50%" stop-color="#065F46"/>
      <stop offset="100%" stop-color="#047857"/>
    </linearGradient>
    <radialGradient id="glow2" cx="50%" cy="50%" r="50%">
      <stop offset="0%" stop-color="#34D399" stop-opacity="0.3"/>
      <stop offset="100%" stop-color="#34D399" stop-opacity="0"/>
    </radialGradient>
  </defs>
  <rect width="1600" height="900" fill="url(#bg2)"/>
  <circle cx="800" cy="450" r="400" fill="url(#glow2)"/>
  <circle cx="200" cy="800" r="200" fill="#10B981" fill-opacity="0.08"/>
  <circle cx="1400" cy="100" r="250" fill="#10B981" fill-opacity="0.08"/>
  <g opacity="0.1">
    <rect x="0" y="0" width="1600" height="900" fill="none" stroke="#34D399" stroke-width="1"/>
    <circle cx="100" cy="100" r="40" fill="none" stroke="#34D399" stroke-width="1"/>
    <circle cx="1500" cy="800" r="60" fill="none" stroke="#34D399" stroke-width="1"/>
    <circle cx="300" cy="700" r="20" fill="none" stroke="#34D399" stroke-width="1"/>
    <circle cx="1300" cy="200" r="30" fill="none" stroke="#34D399" stroke-width="1"/>
  </g>
  <rect x="100" y="300" width="550" height="100" rx="24" fill="white" fill-opacity="0.08"/>
  <rect x="100" y="430" width="850" height="56" rx="18" fill="white" fill-opacity="0.85"/>
  <rect x="100" y="510" width="700" height="36" rx="17" fill="white" fill-opacity="0.5"/>
  <rect x="100" y="560" width="760" height="36" rx="17" fill="white" fill-opacity="0.35"/>
  <rect x="100" y="640" width="240" height="60" rx="30" fill="#10B981"/>
  <rect x="370" y="640" width="220" height="60" rx="30" fill="white" fill-opacity="0.1"/>
  <text x="1170" y="460" font-family="system-ui, sans-serif" font-size="140" font-weight="700" fill="#34D399" fill-opacity="0.12">✦</text>
</svg>
