<svg width="1600" height="900" viewBox="0 0 1600 900" fill="none" xmlns="http://www.w3.org/2000/svg">
  <defs>
    <linearGradient id="bg7" x1="0%" y1="50%" x2="100%" y2="50%">
      <stop offset="0%" stop-color="#0F766E"/>
      <stop offset="50%" stop-color="#0D9488"/>
      <stop offset="100%" stop-color="#0F766E"/>
    </linearGradient>
    <radialGradient id="glow7" cx="50%" cy="50%" r="50%">
      <stop offset="0%" stop-color="#5EEAD4" stop-opacity="0.15"/>
      <stop offset="100%" stop-color="#5EEAD4" stop-opacity="0"/>
    </radialGradient>
  </defs>
  <rect width="1600" height="900" fill="url(#bg7)"/>
  <circle cx="800" cy="450" r="350" fill="url(#glow7)"/>
  <g opacity="0.08">
    <rect x="100" y="100" width="1400" height="700" rx="50" fill="none" stroke="#5EEAD4" stroke-width="1"/>
    <rect x="120" y="120" width="1360" height="660" rx="40" fill="none" stroke="#5EEAD4" stroke-width="0.5"/>
  </g>
  <rect x="100" y="280" width="560" height="120" rx="24" fill="white" fill-opacity="0.08"/>
  <rect x="100" y="430" width="900" height="56" rx="18" fill="white" fill-opacity="0.9"/>
  <rect x="100" y="510" width="740" height="36" rx="17" fill="white" fill-opacity="0.55"/>
  <rect x="100" y="560" width="800" height="36" rx="17" fill="white" fill-opacity="0.35"/>
  <rect x="100" y="650" width="260" height="60" rx="30" fill="#14B8A6"/>
  <rect x="390" y="650" width="210" height="60" rx="30" fill="white" fill-opacity="0.12"/>
  <g opacity="0.08">
    <circle cx="1400" cy="200" r="10" fill="#5EEAD4"/>
    <circle cx="1450" cy="250" r="6" fill="#5EEAD4"/>
    <circle cx="1350" cy="150" r="8" fill="#5EEAD4"/>
    <circle cx="1400" cy="300" r="4" fill="#5EEAD4"/>
    <circle cx="1480" cy="200" r="5" fill="#5EEAD4"/>
  </g>
</svg>
