<svg width="1600" height="900" viewBox="0 0 1600 900" fill="none" xmlns="http://www.w3.org/2000/svg">
  <defs>
    <linearGradient id="bg5" x1="0%" y1="0%" x2="100%" y2="100%">
      <stop offset="0%" stop-color="#1E3A5F"/>
      <stop offset="50%" stop-color="#1E4A7A"/>
      <stop offset="100%" stop-color="#1A365D"/>
    </linearGradient>
    <radialGradient id="glow5" cx="30%" cy="70%" r="60%">
      <stop offset="0%" stop-color="#60A5FA" stop-opacity="0.2"/>
      <stop offset="100%" stop-color="#60A5FA" stop-opacity="0"/>
    </radialGradient>
  </defs>
  <rect width="1600" height="900" fill="url(#bg5)"/>
  <circle cx="500" cy="700" r="400" fill="url(#glow5)"/>
  <g opacity="0.08">
    <path d="M0 200 Q400 100 800 200 T1600 200" stroke="#60A5FA" stroke-width="1" fill="none"/>
    <path d="M0 400 Q400 300 800 400 T1600 400" stroke="#60A5FA" stroke-width="0.5" fill="none"/>
    <path d="M0 600 Q400 500 800 600 T1600 600" stroke="#60A5FA" stroke-width="0.5" fill="none"/>
  </g>
  <rect x="100" y="260" width="580" height="120" rx="24" fill="white" fill-opacity="0.08"/>
  <rect x="100" y="420" width="880" height="56" rx="18" fill="white" fill-opacity="0.9"/>
  <rect x="100" y="500" width="720" height="36" rx="17" fill="white" fill-opacity="0.55"/>
  <rect x="100" y="550" width="790" height="36" rx="17" fill="white" fill-opacity="0.35"/>
  <rect x="100" y="640" width="270" height="60" rx="30" fill="#60A5FA"/>
  <rect x="400" y="640" width="230" height="60" rx="30" fill="white" fill-opacity="0.12"/>
  <circle cx="1350" cy="300" r="120" fill="none" stroke="#60A5FA" stroke-width="1" stroke-opacity="0.15"/>
  <circle cx="1350" cy="300" r="80" fill="none" stroke="#60A5FA" stroke-width="2" stroke-opacity="0.1"/>
  <circle cx="1350" cy="300" r="40" fill="#60A5FA" fill-opacity="0.08"/>
</svg>
