<svg width="1600" height="900" viewBox="0 0 1600 900" fill="none" xmlns="http://www.w3.org/2000/svg">
    <rect width="1600" height="900" fill="#0B1220"/>
    <circle cx="1292" cy="164" r="248" fill="#1D4ED8" fill-opacity="0.32"/>
    <circle cx="272" cy="780" r="228" fill="#0EA5E9" fill-opacity="0.28"/>
    <rect x="114" y="132" width="548" height="124" rx="24" fill="white" fill-opacity="0.08"/>
    <rect x="114" y="304" width="816" height="54" rx="18" fill="white" fill-opacity="0.9"/>
    <rect x="114" y="392" width="680" height="34" rx="17" fill="white" fill-opacity="0.55"/>
    <rect x="114" y="448" width="734" height="34" rx="17" fill="white" fill-opacity="0.42"/>
    <rect x="114" y="556" width="232" height="64" rx="32" fill="#38BDF8"/>
    <rect x="376" y="556" width="244" height="64" rx="32" fill="white" fill-opacity="0.12"/>
    <path d="M1110 502C1110 440.144 1160.14 390 1222 390H1310C1371.86 390 1422 440.144 1422 502V510C1422 571.856 1371.86 622 1310 622H1222C1160.14 622 1110 571.856 1110 510V502Z" fill="white" fill-opacity="0.1"/>
    <path d="M1180 432H1354V580H1180V432Z" fill="white" fill-opacity="0.12"/>
</svg>
